<?xml version="1.0" encoding="UTF-8" standalone="no"?>
<svg
   height="24"
   viewBox="0 -960 960 960"
   width="24"
   version="1.1"
   id="svg1"
   sodipodi:docname="favicon.svg"
   inkscape:version="1.3.2 (091e20ef0f, 2023-11-25, custom)"
   xmlns:inkscape="http://www.inkscape.org/namespaces/inkscape"
   xmlns:sodipodi="http://sodipodi.sourceforge.net/DTD/sodipodi-0.dtd"
   xmlns="http://www.w3.org/2000/svg"
   xmlns:svg="http://www.w3.org/2000/svg">
  <defs
     id="defs1" />
  <sodipodi:namedview
     id="namedview1"
     pagecolor="#ffffff"
     bordercolor="#999999"
     borderopacity="1"
     inkscape:showpageshadow="0"
     inkscape:pageopacity="0"
     inkscape:pagecheckerboard="0"
     inkscape:deskcolor="#d1d1d1"
     showgrid="false"
     inkscape:zoom="21.291667"
     inkscape:cx="12"
     inkscape:cy="10.215264"
     inkscape:window-width="1366"
     inkscape:window-height="729"
     inkscape:window-x="0"
     inkscape:window-y="0"
     inkscape:window-maximized="1"
     inkscape:current-layer="svg1" />
  <path
     style="color:#000000;fill:#cfe2ff;fill-rule:evenodd;stroke-linecap:round;stroke-linejoin:round;-inkscape-stroke:none;paint-order:fill markers stroke;fill-opacity:1"
     d="m 100,-960 c -55.226188,0.006 -99.99447821,44.77381 -100,100 v 760 C 0.00552179,-44.773812 44.773812,-0.00552179 100,0 h 760 c 55.22619,-0.00552179 99.99448,-44.773812 100,-100 v -760 c -0.006,-55.22619 -44.77381,-99.99448 -100,-100 z"
     id="path3"
     sodipodi:nodetypes="ccccccccc" />
  <path
     d="M640-80q-100 0-170-70t-70-170q0-100 70-170t170-70q100 0 170 70t70 170q0 100-70 170T640-80Zm0-80q66 0 113-47t47-113q0-66-47-113t-113-47q-66 0-113 47t-47 113q0 66 47 113t113 47Zm-480 0q-33 0-56.5-23.5T80-240v-304q0-8 1.5-16t4.5-16l80-184h-6q-17 0-28.5-11.5T120-800v-40q0-17 11.5-28.5T160-880h280q17 0 28.5 11.5T480-840v40q0 17-11.5 28.5T440-760h-6l66 152q-19 10-36 21t-32 25l-84-198h-96l-92 216v304h170q5 21 13.5 41.5T364-160H160Zm480-440q-42 0-71-29t-29-71q0-42 29-71t71-29v200q0-42 29-71t71-29q42 0 71 29t29 71H640Z"
     id="path1"
     style="fill:#0d6efd;fill-opacity:1" />
</svg>
