<?xml version="1.0" encoding="UTF-8" standalone="no"?>
<!-- Created with Inkscape (http://www.inkscape.org/) -->

<svg
   width="100"
   height="103.49084"
   viewBox="0 0 100 103.49085"
   version="1.1"
   id="svg1"
   xmlns="http://www.w3.org/2000/svg"
   xmlns:svg="http://www.w3.org/2000/svg">
  <defs
     id="defs1" />
  <g
     id="layer1"
     transform="translate(-83.411049,-117.01658)">
    <g
       id="g1"
       transform="matrix(0.64844491,0,0,0.64844491,68.592871,78.675469)"
       style="stroke-width:1.54215">
      <path
         style="fill:#babdb6;fill-opacity:1;fill-rule:evenodd;stroke:none;stroke-width:0.408027px;stroke-linecap:butt;stroke-linejoin:miter;stroke-opacity:1"
         d="m 67.949114,140.80736 c 35.100186,-15.40952 41.197976,55.30934 96.225996,-2.32388 -31.3667,62.22832 -100.406533,37.36828 -96.225996,2.32388 z"
         id="path4" />
      <path
         id="path3"
         style="fill:#000000;fill-opacity:1;fill-rule:evenodd;stroke:none;stroke-width:0.408027;stroke-linecap:round;stroke-linejoin:round;stroke-dasharray:none;stroke-opacity:1;paint-order:stroke fill markers"
         d="m 127.54868,121.82227 a 12.435416,12.435417 0 0 0 -12.43542,12.43542 12.435416,12.435417 0 0 0 12.43542,12.43541 12.435416,12.435417 0 0 0 12.43541,-12.43541 12.435416,12.435417 0 0 0 -12.43541,-12.43542 z m 1.02784,6.0694 a 3.9687502,3.9687502 0 0 1 3.96875,3.96875 3.9687502,3.9687502 0 0 1 -3.96875,3.96875 3.9687502,3.9687502 0 0 1 -3.96875,-3.96875 3.9687502,3.9687502 0 0 1 3.96875,-3.96875 z M 105.76551,59.127909 c -0.45984,-0.0044 -0.92062,0.111226 -1.33429,0.346749 -0.82727,0.470515 -1.33815,1.348922 -1.3379,2.300635 v 29.383219 c -1.82598,0.165315 -3.625536,0.433192 -5.405866,0.761194 L 73.896141,76.740271 a 3.9691469,3.9691469 0 0 0 -5.048788,6.041491 L 82.12768,97.148327 c -1.77408,0.890048 -3.479739,1.88161 -5.130437,2.940903 l -27.5208,-21.873597 c -0.795408,-0.631759 -1.882113,-0.752466 -2.796729,-0.310575 -0.91463,0.441362 -1.495909,1.367246 -1.496033,2.3828 v 20.025132 c -1.35e-4,0.97796 0.538787,1.87661 1.401982,2.33629 l 17.398938,9.27747 c -2.471734,3.21012 -4.491668,6.73146 -6.034774,10.4836 L 32.569981,109.03907 c -1.62058,-0.85277 -3.522081,-0.99538 -5.251876,-0.39429 -3.616306,1.25718 -5.413554,5.31258 -3.91604,8.83615 l 9.11934,21.43332 -9.11934,21.43383 c -2.431861,5.72454 3.66318,11.33654 9.167916,8.44135 l 25.372095,-13.36611 c 1.541411,3.75298 3.559829,7.27495 6.030123,10.48618 l -17.386536,9.27075 c -0.863196,0.45968 -1.402117,1.35834 -1.401982,2.3363 v 20.02513 c 1.24e-4,1.01556 0.581402,1.94143 1.496033,2.3828 0.914617,0.44189 2.001321,0.32118 2.796729,-0.31058 l 27.504264,-21.86016 c 1.651142,1.06048 3.357274,2.05293 5.131986,2.94401 l -13.26534,14.35003 a 3.9691469,3.9691469 0 0 0 5.048788,6.04149 l 23.762893,-15.16135 c 1.78963,0.33065 3.598486,0.60118 5.434286,0.76739 v 29.38374 c -2.5e-4,0.95172 0.51063,1.83011 1.3379,2.30063 0.82733,0.47103 1.84367,0.46142 2.66186,-0.0253 l 35.73477,-21.25968 c 0.78853,-0.46906 1.27774,-1.31299 1.29294,-2.23036 L 144.42,176.0195 c 17.23463,-10.70537 27.65377,-25.76929 29.80231,-28.61686 l 0.0119,-0.0155 c 1.64613,-2.1889 2.97517,-5.86315 2.8205,-9.10746 -0.15466,-3.24423 -1.32891,-5.54283 -2.20555,-6.93187 -0.19631,-0.31066 -0.40536,-0.61264 -0.62684,-0.90589 -2.1345,-2.82897 -12.61525,-18.09121 -29.80541,-28.80237 L 144.1208,82.990038 c -0.0152,-0.917362 -0.50441,-1.76131 -1.29294,-2.230354 L 107.09308,59.499979 c -0.4091,-0.243363 -0.86773,-0.367684 -1.32757,-0.37207 z m 2.70526,45.015341 c 0.4204,0.0202 0.84041,0.0461 1.25987,0.0775 v -0.0749 c 28.64547,0.54365 50.49867,29.71397 53.93108,34.26302 0.20558,0.32574 0.27074,0.66629 0,1.0263 -3.17052,4.20195 -22.06378,29.39353 -47.50356,33.64446 -0.003,4.4e-4 -0.005,0.001 -0.008,0.002 l -0.005,5.2e-4 c -1.7058,0.28455 -3.44034,0.47262 -5.20227,0.55604 -0.2498,0.0144 -0.49975,0.0268 -0.74982,0.0372 -0.1551,0.005 -0.30759,0.0203 -0.46302,0.0233 v -0.0139 c -0.41978,0.0142 -0.83979,0.0228 -1.25988,0.0258 l 5.2e-4,-5.2e-4 c -22.410491,-1.5e-4 -40.577993,-15.57336 -40.57788,-34.78341 -1.13e-4,-19.21005 18.167389,-34.78325 40.57788,-34.7834 z" />
    </g>
  </g>
</svg>
